<?xml version="1.0" encoding="UTF-8" standalone="no"?>
<svg
   viewBox="0 0 100 100"
   version="1.1"
   id="svg2"
   sodipodi:docname="favicon_副本.svg"
   inkscape:version="1.4 (e7c3feb1, 2024-10-09)"
   xmlns:inkscape="http://www.inkscape.org/namespaces/inkscape"
   xmlns:sodipodi="http://sodipodi.sourceforge.net/DTD/sodipodi-0.dtd"
   xmlns="http://www.w3.org/2000/svg"
   xmlns:svg="http://www.w3.org/2000/svg">
  <defs
     id="defs2" />
  <sodipodi:namedview
     id="namedview2"
     pagecolor="#ffffff"
     bordercolor="#000000"
     borderopacity="0.25"
     inkscape:showpageshadow="2"
     inkscape:pageopacity="0.0"
     inkscape:pagecheckerboard="0"
     inkscape:deskcolor="#d1d1d1"
     inkscape:zoom="3.6922388"
     inkscape:cx="62.563667"
     inkscape:cy="44.823753"
     inkscape:window-width="1440"
     inkscape:window-height="778"
     inkscape:window-x="0"
     inkscape:window-y="25"
     inkscape:window-maximized="0"
     inkscape:current-layer="svg2" />
  <path
     style="font-size:71.5834px;line-height:0;font-family:'Savoye LET';-inkscape-font-specification:'Savoye LET';stroke-width:1.88975;fill:#ffffff"
     d="m 28.661275,53.172059 h 14.680189 l 5.976934,-28.591416 3.670047,-1.817547 -9.926604,47.081463 H 40.894766 Q 40.090851,67.432813 38.762643,65.125927 37.469388,62.81904 35.686794,60.651964 33.9042,58.449936 31.981794,56.7722 30.094341,55.094464 28.206888,54.185691 l -0.104858,0.174764 q -1.992311,4.578821 -4.858444,8.178962 -2.831179,3.565189 -5.837122,5.417689 -1.747642,1.083538 -4.019576,1.887453 -2.236981,0.803915 -4.7186319,1.223349 -2.4466981,0.419434 -4.9633019,0.419434 -1.7126887,0 -3.705000058324,-0.349529 L 1.1184447,68.37654 q 4.0195755,1.293255 7.0954246,1.293255 3.8448117,0 7.3400947,-1.992312 3.495283,-1.992311 5.767217,-5.417689 3.180707,-4.788537 5.837122,-13.037405 0.454387,-1.363161 1.363161,-4.613774 0.908773,-3.250613 1.642783,-6.256557 0.768962,-3.005943 1.188396,-4.998254 l 1.223349,-6.221604 0.104859,-0.664104 3.94967,-1.957358 q -0.349529,2.796226 -1.22335,6.606084 -0.87382,3.809859 -2.027264,7.864387 -1.11849,4.054529 -2.376792,7.934293 -1.258302,3.844811 -2.271934,6.081792 z m 14.400566,1.188396 H 31.107973 q 2.446698,1.887453 5.277878,4.998255 2.831179,3.075849 4.473962,5.697311 z m 8.144008,8.77316 q 0,-3.145754 1.677736,-6.256556 1.712689,-3.145755 4.404057,-5.103114 2.691368,-1.957358 5.487594,-1.957358 2.936038,0 4.718632,1.957358 1.817547,1.922406 1.817547,4.998255 0,3.355472 -1.677736,6.501227 -1.642783,3.145754 -4.369103,5.173018 -2.691368,1.992312 -5.452642,1.992312 -2.970991,0 -4.788538,-1.992312 -1.817547,-2.027264 -1.817547,-5.31283 z m 14.959812,-7.689622 q 0,-2.09717 -1.048585,-3.460331 -1.013632,-1.36316 -2.621463,-1.36316 -1.468019,0 -2.831179,0.943726 -1.328208,0.943727 -2.446698,2.761274 -1.258302,2.09717 -2.09717,4.893396 -0.803915,2.796227 -0.803915,4.963302 0,2.58651 1.013632,3.984623 1.013632,1.398113 2.901085,1.398113 3.040896,0 5.347783,-4.229292 1.188396,-2.167076 1.887453,-4.858444 0.699057,-2.691368 0.699057,-5.033207 z m 4.089481,12.163585 1.957359,-2.306887 q 1.537924,3.635094 4.893396,3.635094 1.747641,0 2.970991,-1.11849 1.258301,-1.153444 1.258301,-2.656416 0,-1.083537 -0.594198,-1.8525 -0.594198,-0.768962 -2.831179,-2.586509 -2.062217,-1.677736 -2.796226,-2.621462 -0.699057,-0.97868 -0.699057,-2.236981 0,-1.642784 0.943726,-3.040897 0.97868,-1.398113 2.58651,-2.236981 1.60783,-0.873821 3.390424,-0.873821 1.572878,0 2.621463,0.803915 1.083537,0.768963 1.083537,1.992312 0,1.60783 -1.36316,2.202028 Q 83.467312,53.0672 82.418727,52.158426 81.405095,51.2147 79.797265,51.2147 q -1.433066,0 -2.516604,0.943726 -1.048585,0.908774 -1.048585,2.09717 0,1.468019 1.817547,2.901085 l 2.027265,1.642783 q 2.97099,2.34184 2.97099,4.788538 0,1.817547 -1.048585,3.425377 -1.013632,1.572878 -2.796226,2.516604 -1.747642,0.943727 -3.705,0.943727 -3.110802,0 -5.242925,-2.866132 z M 94.092972,51.179747 91.436557,62.81904 q -0.419434,1.922405 -0.419434,2.726321 0,1.258301 0.594198,2.027264 0.594198,0.768962 1.572877,0.768962 0.943727,0 1.712689,-0.524292 0.803915,-0.559246 2.411745,-2.271934 l 0.419434,-0.419434 0.524293,0.524292 q -2.062217,2.516604 -3.460331,3.565189 -1.36316,1.013632 -2.691368,1.013632 -1.677735,0 -2.691368,-1.083538 -0.978679,-1.11849 -0.978679,-2.901085 0,-1.328207 0.524293,-3.844811 L 91.22684,51.179747 h -3.355472 l 0.24467,-1.188396 h 3.355471 l 1.957359,-9.437264 3.355472,-1.328208 -2.446698,10.765472 H 100 l -0.24467,1.188396 z"
     id="text2"
     aria-label="Host" />
</svg>
